# xmcd
#
# Track frame offsets: 
#        150
#        20225
#        39847
#
# Disc length: 834 seconds
#
# Revision: 2
# Processed by: cddbd v1.5.2PL0 Copyright (c) Steve Scherf et al.
# Submitted via: ExactAudioCopyFreeDBPlugin 1.0
#
DISCID=1c034003
DTITLE=Badly Drawn Boy - Pissing In The Wind [CD1]
DYEAR=2001
DGENRE=Alternative
TTITLE0=Spitting In The Wind
TTITLE1=Pissing In The Wind
TTITLE2=The Shining [Minotaur Shock Remix]
EXTD=
EXTT0=
EXTT1=
EXTT2=
PLAYORDER=
